<svg xmlns="http://www.w3.org/2000/svg" width="420" height="420" viewBox="0 0 420 420">
  <rect width="420" height="420" fill="#fff"/>
  <rect x="24" y="24" width="372" height="372" rx="18" fill="#f8fafc" stroke="#0f172a" stroke-width="8"/>
  <text x="210" y="64" font-family="Arial, sans-serif" font-size="28" font-weight="700" text-anchor="middle" fill="#0f172a">QRIS</text>
  <g fill="#0f172a">
    <rect x="58" y="82" width="82" height="82"/><rect x="76" y="100" width="46" height="46" fill="#fff"/><rect x="92" y="116" width="14" height="14"/>
    <rect x="280" y="82" width="82" height="82"/><rect x="298" y="100" width="46" height="46" fill="#fff"/><rect x="314" y="116" width="14" height="14"/>
    <rect x="58" y="280" width="82" height="82"/><rect x="76" y="298" width="46" height="46" fill="#fff"/><rect x="92" y="314" width="14" height="14"/>
    <rect x="166" y="92" width="22" height="22"/><rect x="208" y="92" width="34" height="22"/><rect x="166" y="132" width="64" height="18"/>
    <rect x="168" y="184" width="26" height="26"/><rect x="210" y="184" width="68" height="26"/><rect x="304" y="184" width="26" height="26"/>
    <rect x="166" y="232" width="38" height="38"/><rect x="226" y="226" width="24" height="72"/><rect x="270" y="238" width="82" height="28"/>
    <rect x="158" y="310" width="34" height="34"/><rect x="214" y="320" width="28" height="28"/><rect x="270" y="302" width="24" height="60"/><rect x="314" y="306" width="42" height="42"/>
  </g>
  <text x="210" y="390" font-family="Arial, sans-serif" font-size="16" text-anchor="middle" fill="#334155">LaundryPro Makassar</text>
</svg>
